<svg xmlns="http://www.w3.org/2000/svg" xmlns:xlink="http://www.w3.org/1999/xlink" version="1.1" id="Layer_1" x="0px" y="0px" viewBox="0 0 27 18.5" style="enable-background:new 0 0 27 18.5;" xml:space="preserve">
<style type="text/css">
	.st0{fill:#FFFFFF;}
</style>
    <title>elements_v2</title>
    <path class="st0" d="M13.5,12.4c-0.3,0-0.6-0.1-0.8-0.3L0.6,2.5c0,0.2,0,0.3,0,0.5v12.5c0,1.3,1,2.3,2.3,2.3h21.3  c1.3,0,2.3-1,2.3-2.3v0V3c0-0.2,0-0.3,0-0.5l-12.1,9.6C14.1,12.3,13.8,12.4,13.5,12.4z"/>
    <path class="st0" d="M24.6,0.7c-0.1,0-0.3,0-0.4-0.1H2.9c-0.1,0-0.3,0-0.4,0.1l11.1,8.8L24.6,0.7z"/>
</svg>
