<svg xmlns="http://www.w3.org/2000/svg" xmlns:xlink="http://www.w3.org/1999/xlink" version="1.1" id="Layer_1" x="0px" y="0px" viewBox="0 0 27 18.5" style="enable-background:new 0 0 27 18.5;" xml:space="preserve">
<style type="text/css">
	.st0{fill:#FFFFFF;}
</style>
    <title>elements_v2</title>
    <path class="st0" d="M7.5,6.7C7.5,3.1,9.9,1,13.4,1c2.8,0,5.7,1.5,5.7,4.6c0,2.2-1.1,3-2.8,4.1c-1.2,0.8-1.5,1.1-1.5,2.5h-3.6V11  c0-1.3,0.7-2.5,1.8-3.1c0.9-0.6,1.8-1.1,1.8-2.2c0-0.8-0.6-1.4-1.3-1.4c0,0-0.1,0-0.1,0c-1-0.1-1.9,0.6-2,1.6c0,0.1,0,0.2,0,0.4v0.4  L7.5,6.7z M10.9,13.3h4.2v4.2h-4.2V13.3z"/>
</svg>
