<svg xmlns="http://www.w3.org/2000/svg" xmlns:xlink="http://www.w3.org/1999/xlink" version="1.1" id="Layer_1" x="0px" y="0px" viewBox="0 0 25 25" style="background-color: black;enable-background:new 0 0 25 25;" xml:space="preserve">
<style type="text/css">
	.st0{fill:#FFFFFF;}
</style>
    <path class="st0" d="M22.8,6.2c-1.5,0-2.8-0.8-3.8-1.7c-0.5-0.5-1-1.2-1.3-1.9c-0.3-0.7-0.4-1.5-0.4-2.2h-4.1v15.9  c0,2.6-1.6,4.1-3.5,4.1c-0.5,0-1-0.1-1.5-0.3C7.7,20,7.3,19.6,7,19.2c-0.3-0.4-0.6-0.8-0.7-1.3s-0.2-1-0.1-1.5  c0.1-0.5,0.3-1,0.6-1.4c0.3-0.4,0.7-0.8,1.1-1c0.4-0.3,0.9-0.4,1.4-0.5c0.5,0,1,0,1.5,0.2V9.5C10.4,9.4,10,9.4,9.7,9.4  c-1.5,0-3,0.4-4.2,1.3s-2.2,2-2.8,3.4S1.9,17,2.2,18.4c0.3,1.5,1,2.8,2.1,3.9c1.1,1.1,2.4,1.8,3.9,2.1c1.5,0.3,3,0.1,4.4-0.4  s2.6-1.5,3.4-2.8c0.8-1.3,1.3-2.7,1.3-4.2V8.4c1.6,1.1,3.5,1.6,5.6,1.7V6.2z"/>
</svg>
